<svg width="30" height="30" viewBox="0 0 30 30" fill="none" xmlns="http://www.w3.org/2000/svg">
<path d="M20.0854 9V20.5C20.0854 22.71 17.9967 24.5 15.4179 24.5C12.839 24.5 10.7503 22.71 10.7503 20.5V8C10.7503 6.62 12.0572 5.5 13.6675 5.5C15.2778 5.5 16.5847 6.62 16.5847 8V18.5C16.5847 19.05 16.0596 19.5 15.4179 19.5C14.7761 19.5 14.251 19.05 14.251 18.5V9H12.5007V18.5C12.5007 19.88 13.8076 21 15.4179 21C17.0282 21 18.3351 19.88 18.3351 18.5V8C18.3351 5.79 16.2463 4 13.6675 4C11.0887 4 9 5.79 9 8V20.5C9 23.54 11.8705 26 15.4179 26C18.9652 26 21.8357 23.54 21.8357 20.5V9H20.0854Z" fill="#323232"/>
</svg>
