<svg width="26" height="26" viewBox="0 0 26 26" fill="none" xmlns="http://www.w3.org/2000/svg">
<g clip-path="url(#clip0_565_1098)">
<path d="M6.49992 10.8335C5.30825 10.8335 4.33325 11.8085 4.33325 13.0002C4.33325 14.1918 5.30825 15.1668 6.49992 15.1668C7.69159 15.1668 8.66658 14.1918 8.66658 13.0002C8.66658 11.8085 7.69159 10.8335 6.49992 10.8335ZM19.4999 10.8335C18.3083 10.8335 17.3333 11.8085 17.3333 13.0002C17.3333 14.1918 18.3083 15.1668 19.4999 15.1668C20.6916 15.1668 21.6666 14.1918 21.6666 13.0002C21.6666 11.8085 20.6916 10.8335 19.4999 10.8335ZM12.9999 10.8335C11.8083 10.8335 10.8333 11.8085 10.8333 13.0002C10.8333 14.1918 11.8083 15.1668 12.9999 15.1668C14.1916 15.1668 15.1666 14.1918 15.1666 13.0002C15.1666 11.8085 14.1916 10.8335 12.9999 10.8335Z" fill="#BDBDBD"/>
</g>
<defs>
<clipPath id="clip0_565_1098">
<rect width="26" height="26" fill="white"/>
</clipPath>
</defs>
</svg>
