<svg width="30" height="30" viewBox="0 0 30 30" fill="none" xmlns="http://www.w3.org/2000/svg">
<g clip-path="url(#clip0_601_1521)">
<path d="M12 16H20V18H12V16ZM24.1 17H26C26 14.24 23.76 12 21 12H17V13.9H21C22.71 13.9 24.1 15.29 24.1 17ZM7.9 17C7.9 15.29 9.29 13.9 11 13.9H15V12H11C8.24 12 6 14.24 6 17C6 19.76 8.24 22 11 22H15V20.1H11C9.29 20.1 7.9 18.71 7.9 17ZM23 17H21V20H18V22H21V25H23V22H26V20H23V17Z" fill="#323232"/>
</g>
<path d="M10.7804 5.78083L8.40792 2.2275C8.305 2.07583 8.13167 2 7.95833 2C7.785 2 7.61167 2.07583 7.50875 2.23292L5.13625 5.78083H2.54167C2.24375 5.78083 2 6.02458 2 6.3225C2 6.37125 2.00542 6.42 2.02167 6.46875L3.3975 11.49C3.52208 11.945 3.93917 12.2808 4.4375 12.2808H11.4792C11.9775 12.2808 12.3946 11.945 12.5246 11.49L13.9004 6.46875L13.9167 6.3225C13.9167 6.02458 13.6729 5.78083 13.375 5.78083H10.7804ZM6.33333 5.78083L7.95833 3.3975L9.58333 5.78083H6.33333ZM7.95833 10.1142C7.3625 10.1142 6.875 9.62667 6.875 9.03083C6.875 8.435 7.3625 7.9475 7.95833 7.9475C8.55417 7.9475 9.04167 8.435 9.04167 9.03083C9.04167 9.62667 8.55417 10.1142 7.95833 10.1142Z" fill="#BDBDBD"/>
<defs>
<clipPath id="clip0_601_1521">
<rect width="24" height="24" fill="white" transform="translate(4 5)"/>
</clipPath>
</defs>
</svg>
