<svg width="30" height="30" viewBox="0 0 30 30" fill="none" xmlns="http://www.w3.org/2000/svg">
<g clip-path="url(#clip0_601_1520)">
<path d="M11 17H19V19H11V17ZM23.1 18H25C25 15.24 22.76 13 20 13H16V14.9H20C21.71 14.9 23.1 16.29 23.1 18ZM6.9 18C6.9 16.29 8.29 14.9 10 14.9H14V13H10C7.24 13 5 15.24 5 18C5 20.76 7.24 23 10 23H14V21.1H10C8.29 21.1 6.9 19.71 6.9 18ZM22 18H20V21H17V23H20V26H22V23H25V21H22V18Z" fill="#323232"/>
</g>
<g clip-path="url(#clip1_601_1520)">
<path d="M9.5 8.96875C10.5187 8.96875 11.4187 9.2125 12.15 9.53125C12.825 9.83125 13.25 10.5062 13.25 11.2375V12.25H5.75V11.2437C5.75 10.5062 6.175 9.83125 6.85 9.5375C7.58125 9.2125 8.48125 8.96875 9.5 8.96875ZM4.5 9.125C5.1875 9.125 5.75 8.5625 5.75 7.875C5.75 7.1875 5.1875 6.625 4.5 6.625C3.8125 6.625 3.25 7.1875 3.25 7.875C3.25 8.5625 3.8125 9.125 4.5 9.125ZM5.20625 9.8125C4.975 9.775 4.74375 9.75 4.5 9.75C3.88125 9.75 3.29375 9.88125 2.7625 10.1125C2.3 10.3125 2 10.7625 2 11.2688V12.25H4.8125V11.2437C4.8125 10.725 4.95625 10.2375 5.20625 9.8125ZM14.5 9.125C15.1875 9.125 15.75 8.5625 15.75 7.875C15.75 7.1875 15.1875 6.625 14.5 6.625C13.8125 6.625 13.25 7.1875 13.25 7.875C13.25 8.5625 13.8125 9.125 14.5 9.125ZM17 11.2688C17 10.7625 16.7 10.3125 16.2375 10.1125C15.7063 9.88125 15.1188 9.75 14.5 9.75C14.2563 9.75 14.025 9.775 13.7938 9.8125C14.0438 10.2375 14.1875 10.725 14.1875 11.2437V12.25H17V11.2688ZM9.5 4.75C10.5375 4.75 11.375 5.5875 11.375 6.625C11.375 7.6625 10.5375 8.5 9.5 8.5C8.4625 8.5 7.625 7.6625 7.625 6.625C7.625 5.5875 8.4625 4.75 9.5 4.75Z" fill="#BDBDBD"/>
</g>
<defs>
<clipPath id="clip0_601_1520">
<rect width="24" height="24" fill="white" transform="translate(3 6)"/>
</clipPath>
<clipPath id="clip1_601_1520">
<rect width="15" height="15" fill="white" transform="translate(2 1)"/>
</clipPath>
</defs>
</svg>
