<svg width="24" height="25" viewBox="0 0 24 25" fill="none" xmlns="http://www.w3.org/2000/svg">
<g clip-path="url(#clip0_428_655)">
<path d="M12.1344 8.01359C13.2221 8.01359 14.112 7.11207 14.112 6.01021C14.112 4.90835 13.2221 4.00684 12.1344 4.00684C11.0467 4.00684 10.1567 4.90835 10.1567 6.01021C10.1567 7.11207 11.0467 8.01359 12.1344 8.01359ZM12.1344 10.017C11.0467 10.017 10.1567 10.9185 10.1567 12.0203C10.1567 13.1222 11.0467 14.0237 12.1344 14.0237C13.2221 14.0237 14.112 13.1222 14.112 12.0203C14.112 10.9185 13.2221 10.017 12.1344 10.017ZM12.1344 16.0271C11.0467 16.0271 10.1567 16.9286 10.1567 18.0305C10.1567 19.1323 11.0467 20.0338 12.1344 20.0338C13.2221 20.0338 14.112 19.1323 14.112 18.0305C14.112 16.9286 13.2221 16.0271 12.1344 16.0271Z" fill="#323232"/>
</g>
<defs>
<clipPath id="clip0_428_655">
<rect width="23.7315" height="24.0405" fill="white" transform="translate(0.268555)"/>
</clipPath>
</defs>
</svg>
