<svg width="25" height="21" viewBox="0 0 25 21" fill="none" xmlns="http://www.w3.org/2000/svg">
<g clip-path="url(#clip0_565_1099)">
<path d="M15.9195 12.0357H15.1383L14.8615 11.8036C15.8305 10.8236 16.4139 9.55122 16.4139 8.16711C16.4139 5.08081 13.5365 2.5791 9.98662 2.5791C6.43678 2.5791 3.55933 5.08081 3.55933 8.16711C3.55933 11.2534 6.43678 13.7551 9.98662 13.7551C11.5786 13.7551 13.0421 13.2479 14.1693 12.4054L14.4363 12.6461V13.3253L19.3804 17.6152L20.8537 16.3342L15.9195 12.0357V12.0357ZM9.98662 12.0357C7.52447 12.0357 5.53695 10.3078 5.53695 8.16711C5.53695 6.02648 7.52447 4.29849 9.98662 4.29849C12.4488 4.29849 14.4363 6.02648 14.4363 8.16711C14.4363 10.3078 12.4488 12.0357 9.98662 12.0357Z" fill="#323232"/>
</g>
<defs>
<clipPath id="clip0_565_1099">
<rect width="23.7315" height="20.6327" fill="white" transform="translate(0.592773)"/>
</clipPath>
</defs>
</svg>
